SplineFontDB: 3.2
FontName: Westwood_Sans
FullName: Westwood_Sans
FamilyName: Westwood_Sans
Weight: Bold
Copyright: Copyright (c) 2020, Tomoki Fukazawa
UComments: "2020-5-11: Created with FontForge (http://fontforge.org)"
Version: 001.000
ItalicAngle: 0
UnderlinePosition: -100
UnderlineWidth: 50
Ascent: 800
Descent: 200
InvalidEm: 0
LayerCount: 2
Layer: 0 0 "Back" 1
Layer: 1 0 "Fore" 0
XUID: [1021 1020 -447051912 31840]
StyleMap: 0x0000
FSType: 0
OS2Version: 0
OS2_WeightWidthSlopeOnly: 0
OS2_UseTypoMetrics: 1
CreationTime: 1589226138
ModificationTime: 1589231064
OS2TypoAscent: 0
OS2TypoAOffset: 1
OS2TypoDescent: 0
OS2TypoDOffset: 1
OS2TypoLinegap: 90
OS2WinAscent: 0
OS2WinAOffset: 1
OS2WinDescent: 0
OS2WinDOffset: 1
HheadAscent: 0
HheadAOffset: 1
HheadDescent: 0
HheadDOffset: 1
MarkAttachClasses: 1
DEI: 91125
Encoding: ISO8859-1
UnicodeInterp: none
NameList: AGL For New Fonts
DisplaySize: -48
AntiAlias: 1
FitToEm: 0
WinInfo: 0 28 8
BeginPrivate: 0
EndPrivate
AnchorClass2: "a""" 
BeginChars: 256 28

StartChar: a
Encoding: 97 97 0
Width: 390
Flags: W
HStem: 0 82.1396<138.251 249.659> 242.86 82.1396<138.251 249.659>
VStem: 23 89.2764<109.424 215.576> 273 90<5 23.1299 106.462 218.538 301.868 319.886>
LayerCount: 2
Fore
SplineSet
273 23.1298828125 m 1
 248.139648438 8.16015625 218.459960938 0 186.265625 0 c 0
 96.0966796875 0 23 72.7548828125 23 162.5 c 0
 23 252.245117188 96.0966796875 325 186.265625 325 c 0
 218.459960938 325 248.139648438 316.841796875 273 301.868164062 c 1
 273 319.885742188 l 1
 363 319.885742188 l 1
 363 5 l 1
 273 5 l 1
 273 23.1298828125 l 1
273 162.5 m 0
 273 208.419921875 240.544921875 242.860351562 194.3125 242.860351562 c 0
 148.080078125 242.860351562 112.276367188 206.884765625 112.276367188 162.5 c 0
 112.276367188 118.115234375 148.080078125 82.1396484375 194.3125 82.1396484375 c 0
 240.544921875 82.1396484375 273 116.580078125 273 162.5 c 0
EndSplineSet
Validated: 1
EndChar

StartChar: b
Encoding: 98 98 1
Width: 407
Flags: W
HStem: 0 82.1396<150.655 262.055> 242.86 82.1396<150.655 262.055>
VStem: 37.3057 90<4.00977 23.1299 106.442 218.558 301.868 474.785> 288.03 89.2744<109.424 215.576>
LayerCount: 2
Fore
SplineSet
37.3056640625 474.78515625 m 1
 127.305664062 474.78515625 l 1
 127.305664062 301.868164062 l 1
 152.163085938 316.841796875 181.844726562 325 214.040039062 325 c 0
 304.209960938 325 377.3046875 252.245117188 377.3046875 162.5 c 0
 377.3046875 72.7548828125 304.209960938 0 214.040039062 0 c 0
 181.844726562 0 152.163085938 8.16015625 127.305664062 23.1298828125 c 1
 127.305664062 4.009765625 l 1
 37.3056640625 4.009765625 l 1
 37.3056640625 474.78515625 l 1
127.305664062 162.440429688 m 2
 127.333984375 116.549804688 159.78125 82.1396484375 205.993164062 82.1396484375 c 0
 252.224609375 82.1396484375 288.030273438 118.115234375 288.030273438 162.5 c 0
 288.030273438 206.884765625 252.224609375 242.860351562 205.993164062 242.860351562 c 0
 159.78125 242.860351562 127.333984375 208.450195312 127.305664062 162.559570312 c 2
 127.305664062 162.440429688 l 2
EndSplineSet
Validated: 1
EndChar

StartChar: c
Encoding: 99 99 2
Width: 352
Flags: W
HStem: 0 88.415<129.03 232.758> 236.585 88.415<129.658 230.892>
VStem: 19 88.3311<110.248 214.752>
LayerCount: 2
Fore
SplineSet
245.625 193.844726562 m 1
 235.110351562 217.525390625 212.940429688 236.584960938 182.959960938 236.584960938 c 0
 140.33984375 236.584960938 107.331054688 203.415039062 107.331054688 162.5 c 0
 107.331054688 121.584960938 140.33984375 88.4150390625 182.959960938 88.4150390625 c 0
 213.625 88.4150390625 236.115234375 105.580078125 246.325195312 130.450195312 c 1
 328.5703125 91.669921875 l 1
 303.299804688 37.41015625 249.084960938 0 181.5 0 c 0
 90.5 0 19 72.7548828125 19 162.5 c 0
 19 252.245117188 93.75 325 181.5 325 c 0
 244.884765625 325 301.490234375 287.03515625 328.03515625 232.129882812 c 1
 245.625 193.844726562 l 1
EndSplineSet
Validated: 1
EndChar

StartChar: d
Encoding: 100 100 3
Width: 412
Flags: W
HStem: 0 82.1396<144.651 256.061> 242.86 82.1396<144.651 256.061>
VStem: 29.4004 89.2764<109.424 215.576> 279.4 90<4.00977 23.1299 106.462 218.538 301.868 474.982>
LayerCount: 2
Fore
SplineSet
369.400390625 474.982421875 m 1
 369.400390625 4.009765625 l 1
 279.400390625 4.009765625 l 1
 279.400390625 23.1298828125 l 1
 254.544921875 8.16015625 224.860351562 0 192.665039062 0 c 0
 102.497070312 0 29.400390625 72.7548828125 29.400390625 162.5 c 0
 29.400390625 252.245117188 102.497070312 325 192.665039062 325 c 0
 224.860351562 325 254.544921875 316.841796875 279.400390625 301.868164062 c 1
 279.400390625 474.982421875 l 1
 369.400390625 474.982421875 l 1
279.400390625 162.5 m 0
 279.400390625 208.419921875 246.9453125 242.860351562 200.71484375 242.860351562 c 0
 154.48046875 242.860351562 118.676757812 206.884765625 118.676757812 162.5 c 0
 118.676757812 118.115234375 154.48046875 82.1396484375 200.71484375 82.1396484375 c 0
 246.9453125 82.1396484375 279.400390625 116.580078125 279.400390625 162.5 c 0
EndSplineSet
Validated: 1
EndChar

StartChar: e
Encoding: 101 101 4
Width: 366
Flags: W
HStem: 0 80.2051<125.752 257.053> 130 67.5<106.349 252.605> 246.9 80.2021<126.525 232.925>
VStem: 19 320
LayerCount: 2
Fore
SplineSet
105.583007812 130 m 1
 117.780273438 100.735351562 146.44921875 80.205078125 180.950195312 80.205078125 c 0
 207.809570312 80.205078125 233.049804688 91.0302734375 250.174804688 108.384765625 c 1
 327.41015625 71.955078125 l 1
 302.884765625 33.169921875 249.049804688 0 182.549804688 0 c 0
 90.962890625 0 19 73.224609375 19 163.549804688 c 0
 19 253.879882812 94.2333984375 327.102539062 182.549804688 327.102539062 c 0
 270.870117188 327.102539062 358.400390625 253.365234375 339 130 c 1
 105.583007812 130 l 1
252.60546875 197.5 m 1
 241.23046875 224.75 216.485351562 246.900390625 182.8203125 246.900390625 c 0
 148.102539062 246.900390625 119.158203125 226.610351562 106.348632812 197.5 c 1
 252.60546875 197.5 l 1
EndSplineSet
Validated: 33
EndChar

StartChar: g
Encoding: 103 103 5
Width: 418
Flags: W
HStem: -155.05 88.0195<132.008 257.594> 0 85<157.29 264.363> 240 85<157.29 262.371>
VStem: 32 100<109.706 215.294> 287 90<-36.1892 31.9102 107.7 215.2 293.09 320.192>
LayerCount: 2
Fore
SplineSet
377 15 m 1
 377 -80.58984375 300.844726562 -155.049804688 203.922851562 -155.049804688 c 0
 138.840820312 -155.049804688 89.5 -125.049804688 62 -85.0498046875 c 1
 139.5 -37.5498046875 l 1
 154.5 -55.0498046875 181.950195312 -67.0302734375 204.240234375 -67.0302734375 c 0
 248.9296875 -67.0302734375 286.485351562 -28.724609375 287 15 c 2
 287 31.91015625 l 1
 261.639648438 12.21484375 230.224609375 0 195.265625 0 c 0
 105.096679688 0 32 72.7548828125 32 162.5 c 0
 32 252.245117188 105.096679688 325 195.265625 325 c 0
 230.224609375 325 261.639648438 312.78515625 287 293.08984375 c 1
 287 320.192382812 l 1
 377 320.192382812 l 1
 377 15 l 1
211.114257812 85 m 0
 255.700195312 85 287 119.700195312 287 162.5 c 0
 287 199.700195312 255.700195312 240 211.114257812 240 c 0
 166.529296875 240 132 205.299804688 132 162.5 c 0
 132 119.700195312 166.529296875 85 211.114257812 85 c 0
EndSplineSet
Validated: 1
EndChar

StartChar: s
Encoding: 115 115 6
Width: 310
Flags: W
HStem: 0 327.928
VStem: 19.6201 264.385
LayerCount: 2
Fore
SplineSet
284.004882812 257.8046875 m 1
 207.575195312 226.540039062 l 2
 202.424804688 235.495117188 184.655273438 251.9453125 162.044921875 251.9453125 c 0
 133.874023438 251.9453125 128.28125 241.26953125 126.337890625 235.634765625 c 0
 123.7421875 228.115234375 127.73828125 221.16015625 136.999023438 217.740234375 c 0
 149.14453125 213.254882812 161.655273438 209.690429688 175.58984375 206.280273438 c 0
 176.080078125 206.14453125 176.5703125 206.014648438 177.059570312 205.879882812 c 1
 178.60546875 205.459960938 180.16015625 205.040039062 181.745117188 204.60546875 c 0
 202.434570312 198.9296875 225.64453125 191.764648438 252.865234375 171.219726562 c 0
 272.205078125 156.629882812 283.884765625 136.344726562 286.3046875 113.709960938 c 0
 288.615234375 92.10546875 282.174804688 71.96484375 272.39453125 55.9404296875 c 0
 253.25 24.5654296875 215.905273438 0 172.48046875 0 c 2
 172.01953125 0 l 1
 170.514648438 0 l 1
 170.634765625 -0.0595703125 l 1
 141.634765625 -0.0595703125 107.491210938 3.044921875 85.828125 13.5947265625 c 0
 40.431640625 35.705078125 24.15234375 64.4599609375 19.6201171875 76.0546875 c 2
 19.470703125 76.3701171875 l 1
 96.2998046875 112.735351562 l 1
 96.48046875 112.349609375 96.66796875 111.974609375 96.86328125 111.599609375 c 0
 98.3935546875 108.450195312 103.575195312 99.46484375 116.557617188 89.83984375 c 0
 132.696289062 77.8798828125 152.1796875 76.080078125 172.5 80.4501953125 c 0
 195.290039062 85.35546875 198.884765625 100.084960938 192.129882812 106.75 c 0
 184.549804688 114.23046875 170.5 118.58984375 155.8046875 123.14453125 c 0
 152.875 124.0546875 149.915039062 124.974609375 146.98046875 125.924804688 c 2
 146.974609375 125.974609375 l 1
 145.940429688 126.264648438 l 1
 145.610351562 126.375 l 1
 145.5546875 126.375 l 2
 129.163085938 130.969726562 108.805664062 137.514648438 84.1689453125 150.71484375 c 0
 64.5537109375 161.224609375 48.1640625 176.565429688 39.08203125 196.66015625 c 0
 29.7900390625 217.21484375 29.63671875 239.674804688 37.7119140625 259.959960938 c 0
 53.455078125 299.509765625 95.2724609375 322.3671875 141.98046875 327.927734375 c 0
 222.78515625 337.547851562 269.950195312 292.169921875 284.004882812 257.8046875 c 1
EndSplineSet
Validated: 33
EndChar

StartChar: f
Encoding: 102 102 7
Width: 274
Flags: W
HStem: 245 80<17 77 167 242> 390 85<173.436 242>
VStem: 77 90<5 245 325 386.078>
LayerCount: 2
Fore
SplineSet
77 340 m 2
 77 392.5 88.0830078125 475 182 475 c 0
 210.665039062 475 219.5 475 242 472.5 c 1
 242 390 l 1
 204.5 390 l 2
 179.5 390 167 365 167 340 c 2
 167 325 l 1
 242 325 l 1
 242 245 l 1
 167 245 l 1
 167 5 l 1
 77 5 l 1
 77 245 l 1
 17 245 l 1
 17 325 l 1
 77 325 l 1
 77 340 l 2
EndSplineSet
Validated: 1
EndChar

StartChar: h
Encoding: 104 104 8
Width: 395
Flags: W
HStem: 0.5 20.9658G<33.3535 128.354 261.585 356.18> 236.304 89.1602<150.273 246.254>
VStem: 33.3535 95<0.5 220.573 284.803 470.5> 261.585 94.5947<0.46582 178 178.011 221.276>
LayerCount: 2
Fore
SplineSet
33.353515625 470.5 m 1
 128.353515625 470.5 l 1
 128.353515625 284.802734375 l 1
 148.373046875 307.010742188 178.935546875 325.463867188 220.309570312 325.463867188 c 0
 310.990234375 325.463867188 356.1796875 264.443359375 356.1796875 200.465820312 c 1
 356.1796875 0.4658203125 l 1
 261.584960938 0.4658203125 l 1
 261.584960938 178 l 1
 261.625 178.010742188 l 1
 261.615234375 205.67578125 239.084960938 236.303710938 195.690429688 236.303710938 c 0
 152.290039062 236.303710938 128.474609375 203.805664062 128.474609375 173.805664062 c 1
 128.353515625 173.985351562 l 1
 128.353515625 0.5 l 1
 33.353515625 0.5 l 1
 33.353515625 470.5 l 1
EndSplineSet
Validated: 1
EndChar

StartChar: i
Encoding: 105 105 9
Width: 164
Flags: W
HStem: 0 21G<34 124> 300.05 20G<34 124> 355.724 110<35.7306 122.269>
VStem: 24 110<367.454 453.993> 34 90<0 320.05>
LayerCount: 2
Fore
SplineSet
79 355.723632812 m 0xf0
 48.6240234375 355.723632812 24 380.34765625 24 410.723632812 c 0
 24 441.098632812 48.6240234375 465.723632812 79 465.723632812 c 0
 109.375 465.723632812 134 441.098632812 134 410.723632812 c 0
 134 380.34765625 109.375 355.723632812 79 355.723632812 c 0xf0
124 0 m 1xe8
 34 0 l 1
 34 320.049804688 l 1
 124 320.049804688 l 1
 124 0 l 1xe8
EndSplineSet
Validated: 1
EndChar

StartChar: j
Encoding: 106 106 10
Width: 234
Flags: W
HStem: -130 85<29 97.6875> 300.119 20G<104 194> 355.724 110<105.731 192.269>
VStem: 94 110<367.454 453.993> 104 90<-41.0776 320.119>
LayerCount: 2
Fore
SplineSet
204 410.723632812 m 0xf0
 204 380.34765625 179.375 355.723632812 149 355.723632812 c 0
 118.624023438 355.723632812 94 380.34765625 94 410.723632812 c 0
 94 441.098632812 118.624023438 465.723632812 149 465.723632812 c 0
 179.375 465.723632812 204 441.098632812 204 410.723632812 c 0xf0
194 320.119140625 m 1xe8
 194 5 l 2
 194 -47.5 182.915039062 -130 89 -130 c 0
 60.33203125 -130 51.5 -130 29 -127.5 c 1
 29 -42.5 l 1
 49 -45 54 -45 66.5 -45 c 0
 91.5 -45 104 -20 104 5 c 2
 104 320.119140625 l 1
 194 320.119140625 l 1xe8
EndSplineSet
Validated: 1
EndChar

StartChar: k
Encoding: 107 107 11
Width: 373
Flags: W
HStem: 480 20G<36 131>
VStem: 36 95<4.99023 85.54 209.34 500>
LayerCount: 2
Fore
SplineSet
36 500 m 1
 131 500 l 1
 131 209.33984375 l 1
 221.315429688 315 l 1
 346 315 l 1
 213.983398438 174.10546875 l 1
 340.365234375 4.544921875 l 1
 237.865234375 4.544921875 l 1
 158.107421875 114.469726562 l 1
 131 85.5400390625 l 1
 131 4.990234375 l 1
 36 4.990234375 l 1
 36 500 l 1
EndSplineSet
Validated: 1
EndChar

StartChar: l
Encoding: 108 108 12
Width: 151
Flags: W
HStem: 0 21G<29 124> 480 20G<29 124>
VStem: 29 95<0 500>
LayerCount: 2
Fore
SplineSet
29 0 m 1
 29 500 l 1
 124 500 l 1
 124 0 l 1
 29 0 l 1
EndSplineSet
Validated: 1
EndChar

StartChar: m
Encoding: 109 109 13
Width: 555
Flags: W
HStem: 240.805 89.1592<143.998 223.498 336.71 423.814> 299.961 20G<34.8203 124.82>
VStem: 34.8203 90<4.96484 228.628 289.435 319.961> 234.819 90.001<4.96484 228.467> 434.82 90<4.96484 229.17>
LayerCount: 2
Fore
SplineSet
433.474609375 327.216796875 m 0xb8
 473.26953125 319.01953125 500.03515625 293.280273438 513.825195312 260.815429688 c 0
 521.155273438 243.5546875 524.8203125 224.39453125 524.8203125 204.96484375 c 2
 524.8203125 4.96484375 l 1
 434.8203125 4.96484375 l 1
 434.8203125 188.23046875 l 1
 434.8203125 215.900390625 409.8203125 240.8046875 379.8203125 240.8046875 c 0
 349.91015625 240.8046875 324.96484375 215.099609375 324.8203125 185.21484375 c 2
 324.8203125 4.96484375 l 1
 234.819335938 4.96484375 l 1
 234.819335938 188.629882812 l 2
 234.581054688 216.134765625 209.677734375 240.8046875 179.821289062 240.8046875 c 0xb8
 149.821289062 240.8046875 124.8203125 214.9453125 124.8203125 184.9453125 c 1
 124.8203125 4.96484375 l 1
 34.8203125 4.96484375 l 1
 34.8203125 319.9609375 l 1
 124.8203125 319.9609375 l 1x78
 124.8203125 289.434570312 l 1
 142.40625 311.584960938 169.215820312 329.963867188 205.482421875 329.963867188 c 0
 249.576171875 329.963867188 281.424804688 311.259765625 301.0703125 283.705078125 c 1
 320.544921875 310.62109375 349.934570312 329.963867188 405.48046875 329.963867188 c 0
 415.434570312 329.963867188 424.764648438 329.009765625 433.474609375 327.216796875 c 0xb8
EndSplineSet
Validated: 1
EndChar

StartChar: n
Encoding: 110 110 14
Width: 368
Flags: W
HStem: 240.805 89.1592<136.974 235.436> 299.83 20G<25 115>
VStem: 25 90<5 221.907 289.3 319.83> 252.825 90<4.96484 222.833>
LayerCount: 2
Fore
SplineSet
342.825195312 204.96484375 m 2xb0
 342.825195312 4.96484375 l 1
 252.825195312 4.96484375 l 1
 252.825195312 183.41015625 l 2
 251.584960938 210.620117188 222.764648438 240.8046875 184.025390625 240.8046875 c 0xb0
 144.421875 240.8046875 115.122070312 208.3046875 115.122070312 178.3046875 c 1
 115 178.485351562 l 1
 115 5 l 1
 25 5 l 1
 25 319.830078125 l 1
 115 319.830078125 l 1x70
 115 289.299804688 l 1
 135.01953125 311.510742188 165.584960938 329.963867188 206.955078125 329.963867188 c 0
 297.634765625 329.963867188 342.825195312 268.9453125 342.825195312 204.96484375 c 2xb0
EndSplineSet
Validated: 1
EndChar

StartChar: o
Encoding: 111 111 15
Width: 356
Flags: W
HStem: 0 84.5<123.369 230.336> 240.5 84.5<123.998 227.825>
VStem: 14 84.499<109.533 215.467> 251.25 87.75<106.333 215.767>
LayerCount: 2
Fore
SplineSet
176.5 0 m 0
 85.5 0 14 72.7548828125 14 162.5 c 0
 14 252.245117188 88.75 325 176.5 325 c 0
 264.25 325 339 252.245117188 339 162.5 c 0
 339 72.7548828125 270.75 0 176.5 0 c 0
178.125 84.5 m 0
 223 84.5 251.25 119.419921875 251.25 162.5 c 0
 251.25 199.940429688 223 240.5 178.125 240.5 c 0
 133.251953125 240.5 98.4990234375 205.580078125 98.4990234375 162.5 c 0
 98.4990234375 119.419921875 133.251953125 84.5 178.125 84.5 c 0
EndSplineSet
Validated: 1
EndChar

StartChar: p
Encoding: 112 112 16
Width: 392
Flags: W
HStem: -155 21G<29.9424 119.942> 0 82.1396<143.291 254.691> 242.86 82.1396<143.291 254.691>
VStem: 29.9424 90<-155 23.1299 106.442 218.558 301.868 319.425> 280.665 89.2754<109.424 215.576>
LayerCount: 2
Fore
SplineSet
119.942382812 23.1298828125 m 1
 119.942382812 -155 l 1
 29.9423828125 -155 l 1
 29.9423828125 319.424804688 l 1
 119.942382812 319.424804688 l 1
 119.942382812 301.868164062 l 1
 144.799804688 316.842773438 174.481445312 325 206.676757812 325 c 0
 296.844726562 325 369.940429688 252.245117188 369.940429688 162.5 c 0
 369.940429688 72.7548828125 296.844726562 0 206.676757812 0 c 0
 174.481445312 0 144.799804688 8.16015625 119.942382812 23.1298828125 c 1
119.942382812 162.440429688 m 2
 119.970703125 116.549804688 152.418945312 82.1396484375 198.629882812 82.1396484375 c 0
 244.860351562 82.1396484375 280.665039062 118.115234375 280.665039062 162.5 c 0
 280.665039062 206.884765625 244.860351562 242.860351562 198.629882812 242.860351562 c 0
 152.418945312 242.860351562 119.970703125 208.450195312 119.942382812 162.559570312 c 2
 119.942382812 162.440429688 l 2
EndSplineSet
Validated: 1
EndChar

StartChar: q
Encoding: 113 113 17
Width: 470
Flags: W
HStem: -155 21G<316.04 406.04> 0 82.1396<181.29 292.699> 242.86 82.1396<181.29 292.699>
VStem: 66.04 89.2764<109.424 215.576> 316.04 90<-155 23.1299 106.462 218.538 301.868 319.425>
LayerCount: 2
Fore
SplineSet
316.040039062 23.1298828125 m 1
 291.1796875 8.16015625 261.5 0 229.3046875 0 c 0
 139.13671875 0 66.0400390625 72.7548828125 66.0400390625 162.5 c 0
 66.0400390625 252.245117188 139.13671875 325 229.3046875 325 c 0
 261.5 325 291.1796875 316.841796875 316.040039062 301.868164062 c 1
 316.040039062 319.424804688 l 1
 406.040039062 319.424804688 l 1
 406.040039062 -155 l 1
 316.040039062 -155 l 1
 316.040039062 23.1298828125 l 1
316.040039062 162.5 m 0
 316.040039062 208.419921875 283.584960938 242.860351562 237.349609375 242.860351562 c 0
 191.120117188 242.860351562 155.31640625 206.884765625 155.31640625 162.5 c 0
 155.31640625 118.115234375 191.120117188 82.1396484375 237.349609375 82.1396484375 c 0
 283.584960938 82.1396484375 316.040039062 116.580078125 316.040039062 162.5 c 0
EndSplineSet
Validated: 1
EndChar

StartChar: r
Encoding: 114 114 18
Width: 262
Flags: W
HStem: 235 95<134.699 231> 299.791 20G<21 111>
VStem: 21 90<5 212.786 284.53 319.791>
LayerCount: 2
Fore
SplineSet
201.504882812 330 m 0xa0
 211.969726562 330 221.8046875 329.087890625 231 327.369140625 c 2
 231 233.60546875 l 1
 212.73046875 234.64453125 202.905273438 235 183.5 235 c 0xa0
 146 235 111 200.565429688 111 170 c 2
 111 5 l 1
 21 5 l 1
 21 319.791015625 l 1
 111 319.791015625 l 1x60
 111 284.530273438 l 1
 130.6171875 310.495117188 159.620117188 330 201.504882812 330 c 0xa0
EndSplineSet
Validated: 1
EndChar

StartChar: t
Encoding: 116 116 19
Width: 299
Flags: W
HStem: 5 79.7402<195.502 264> 245 80<39 99 189 264>
VStem: 99 90<88.1672 245 325 410.569>
LayerCount: 2
Fore
SplineSet
99 99.9150390625 m 2
 99 245 l 1
 39 245 l 1
 39 325 l 1
 99 325 l 1
 99.0009765625 410.569335938 l 1
 189 410.569335938 l 1
 189 325 l 1
 264 325 l 1
 264 245 l 1
 189 245 l 1
 189 119.75 l 2
 189.0703125 102.219726562 201.5703125 84.740234375 226.5 84.740234375 c 2
 264 84.740234375 l 1
 264 6.759765625 l 1
 241.5 5 232.665039062 5 204 5 c 0
 110.833984375 5 99.1826171875 62.080078125 99.001953125 99.025390625 c 1
 99 99.025390625 l 1
 99 99.89453125 l 2
 99 99.9052734375 99 99.91015625 99 99.9150390625 c 2
EndSplineSet
Validated: 1
EndChar

StartChar: u
Encoding: 117 117 20
Width: 393
Flags: W
HStem: 0 86.3555<137.067 244.101> 299.749 20G<32.8975 122.897 260.725 350.725>
VStem: 32.8975 90<103.45 319.749> 260.725 90<4.95508 36.3301 100.82 142.345 142.485 319.679>
LayerCount: 2
Fore
SplineSet
32.90234375 142.400390625 m 1
 32.8974609375 142.400390625 l 1
 32.8974609375 143.434570312 l 2
 32.8974609375 143.51953125 32.8974609375 143.60546875 32.8974609375 143.690429688 c 1
 32.8974609375 319.749023438 l 1
 122.897460938 319.749023438 l 1
 122.897460938 149.450195312 l 2
 124.091796875 108.5703125 150.779296875 86.35546875 191.700195312 86.35546875 c 0
 231.299804688 86.35546875 260.599609375 108.634765625 260.599609375 142.485351562 c 1
 260.724609375 142.344726562 l 1
 260.724609375 319.678710938 l 1
 350.724609375 319.678710938 l 1
 350.724609375 4.955078125 l 1
 260.724609375 4.955078125 l 1
 260.724609375 36.330078125 l 1
 242.115234375 16.10546875 214.10546875 0 175.454101562 0 c 0
 88.0166015625 0 33.4921875 63.849609375 32.90234375 142.400390625 c 1
EndSplineSet
Validated: 1
EndChar

StartChar: v
Encoding: 118 118 21
Width: 386
Flags: W
HStem: 4.82031 314.644
LayerCount: 2
Fore
SplineSet
119.768554688 319.463867188 m 1
 192.98046875 113.75 l 1
 266.190429688 319.463867188 l 1
 367.389648438 319.463867188 l 1
 255.41015625 4.8203125 l 1
 231.745117188 4.8203125 l 1
 154.211914062 4.8203125 l 1
 130.546875 4.8203125 l 1
 18.5693359375 319.463867188 l 1
 119.768554688 319.463867188 l 1
EndSplineSet
Validated: 1
EndChar

StartChar: w
Encoding: 119 119 22
Width: 526
Flags: W
HStem: 5.07031 314.643<105.157 118.962 215.186 218.421 304.03 307.265 403.49 417.295>
LayerCount: 2
Fore
SplineSet
18.486328125 318.743164062 m 1
 118.961914062 319.712890625 l 1
 161.928710938 123.03515625 l 1
 215.185546875 319.712890625 l 1
 221.185546875 319.712890625 l 1
 301.264648438 319.712890625 l 1
 307.264648438 319.712890625 l 1
 360.525390625 123.03515625 l 1
 403.490234375 319.712890625 l 1
 503.96484375 318.743164062 l 1
 417.294921875 5.0703125 l 1
 392.46484375 5.0703125 l 1
 334.75 5.0703125 l 1
 304.030273438 5.0703125 l 1
 261.224609375 167.639648438 l 1
 218.420898438 5.0703125 l 1
 187.701171875 5.0703125 l 1
 129.985351562 5.0703125 l 1
 105.157226562 5.0703125 l 1
 18.486328125 318.743164062 l 1
EndSplineSet
Validated: 1
EndChar

StartChar: x
Encoding: 120 120 23
Width: 390
Flags: W
HStem: 5.17969 314.643<-88.6777 -87.8408 25.4639 26.3037>
LayerCount: 2
Fore
SplineSet
140.4453125 319.822265625 m 1
 197.098632812 241.740234375 l 1
 253.75 319.822265625 l 1
 368.735351562 319.822265625 l 1
 254.58984375 162.5 l 1
 368.735351562 5.1796875 l 1
 253.75 5.1796875 l 1
 197.098632812 83.259765625 l 1
 140.4453125 5.1796875 l 1
 25.4638671875 5.1796875 l 1
 139.608398438 162.5 l 1
 25.4638671875 319.822265625 l 1
 140.4453125 319.822265625 l 1
EndSplineSet
Validated: 1
EndChar

StartChar: y
Encoding: 121 121 24
Width: 454
Flags: W
HStem: -154.595 95<90.1992 157.194> 299.768 19.9922G<29.4385 146.599 293.763 409.47>
LayerCount: 2
Fore
SplineSet
409.469726562 319.767578125 m 1
 262.389648438 -48.89453125 l 1
 262.309570312 -48.8798828125 l 1
 234.790039062 -113.014648438 190.62109375 -154.594726562 101.665039062 -154.594726562 c 2
 90.19921875 -154.594726562 l 1
 90.19921875 -59.5947265625 l 1
 101.665039062 -59.5947265625 l 2
 133.166992188 -59.5947265625 158.087890625 -47.9345703125 165.999023438 -25.3095703125 c 1
 165.974609375 -25.3046875 l 1
 175.57421875 4.830078125 l 1
 175.553710938 4.8203125 l 1
 29.4384765625 319.759765625 l 1
 137.534179688 319.759765625 l 1
 226.58984375 123.264648438 l 1
 301.375 319.767578125 l 1
 409.469726562 319.767578125 l 1
EndSplineSet
Validated: 1
EndChar

StartChar: z
Encoding: 122 122 25
Width: 344
Flags: W
VStem: 47.4238 264.721
LayerCount: 2
Fore
SplineSet
312.14453125 319.2734375 m 1
 47.4248046875 319.2734375 l 1
 47.4248046875 239.275390625 l 1
 183.1953125 239.275390625 l 1
 47.423828125 84.990234375 l 1
 47.423828125 4.6298828125 l 1
 105.82421875 4.6298828125 l 1
 106.106445312 4.9501953125 l 1
 312.14453125 4.9501953125 l 1
 312.14453125 17.625 l 1
 312.14453125 84.9501953125 l 1
 176.509765625 84.9501953125 l 1
 312.14453125 239.080078125 l 1
 312.14453125 319.2734375 l 1
EndSplineSet
Validated: 9
EndChar

StartChar: colon
Encoding: 58 58 26
Width: 306
Flags: W
HStem: 20.3799 107.8<110.807 197.196> 204.42 107.803<110.807 197.196>
VStem: 100.099 107.807<31.0874 117.472 215.127 301.514>
LayerCount: 2
Fore
SplineSet
154 204.419921875 m 0
 124.231445312 204.419921875 100.098632812 228.549804688 100.098632812 258.3203125 c 0
 100.098632812 288.08984375 124.231445312 312.22265625 154 312.22265625 c 0
 183.76953125 312.22265625 207.905273438 288.08984375 207.905273438 258.3203125 c 0
 207.905273438 228.549804688 183.76953125 204.419921875 154 204.419921875 c 0
154 20.3798828125 m 0
 124.231445312 20.3798828125 100.098632812 44.509765625 100.098632812 74.2802734375 c 0
 100.098632812 104.049804688 124.231445312 128.1796875 154 128.1796875 c 0
 183.76953125 128.1796875 207.905273438 104.049804688 207.905273438 74.2802734375 c 0
 207.905273438 44.509765625 183.76953125 20.3798828125 154 20.3798828125 c 0
EndSplineSet
Validated: 524289
EndChar

